<mxfile host="app.diagrams.net" modified="2022-08-12T17:58:39.734Z" agent="5.0 (Windows)" etag="6vQSSuSDuGx7x7BrcRi2" version="20.2.2" type="github">
  <diagram id="TmC7OF2M4FddDrOPi-iG" name="Page-1">
    <mxGraphModel dx="904" dy="976" grid="1" gridSize="10" guides="1" tooltips="1" connect="1" arrows="1" fold="1" page="1" pageScale="1" pageWidth="827" pageHeight="1169" math="0" shadow="0">
      <root>
        <mxCell id="0" />
        <mxCell id="1" parent="0" />
        <mxCell id="C2YQ_uAtjsGstVJMHjRB-23" style="edgeStyle=orthogonalEdgeStyle;rounded=0;orthogonalLoop=1;jettySize=auto;html=1;entryX=0.5;entryY=0;entryDx=0;entryDy=0;fontSize=14;" edge="1" parent="1" source="C2YQ_uAtjsGstVJMHjRB-1" target="C2YQ_uAtjsGstVJMHjRB-2">
          <mxGeometry relative="1" as="geometry" />
        </mxCell>
        <mxCell id="C2YQ_uAtjsGstVJMHjRB-1" value="&lt;div&gt;Start&lt;/div&gt;" style="ellipse;whiteSpace=wrap;html=1;" vertex="1" parent="1">
          <mxGeometry x="347" y="125" width="80" height="50" as="geometry" />
        </mxCell>
        <mxCell id="C2YQ_uAtjsGstVJMHjRB-24" style="edgeStyle=orthogonalEdgeStyle;rounded=0;orthogonalLoop=1;jettySize=auto;html=1;entryX=0.5;entryY=0;entryDx=0;entryDy=0;fontSize=14;" edge="1" parent="1" source="C2YQ_uAtjsGstVJMHjRB-2" target="C2YQ_uAtjsGstVJMHjRB-3">
          <mxGeometry relative="1" as="geometry" />
        </mxCell>
        <mxCell id="C2YQ_uAtjsGstVJMHjRB-2" value="&lt;div&gt;Declare variables directionalData, averageMins, totalTravelUnits, totalDistance, unitTime, passengerWeightImpact = 5, travelAgainstWind = 25, travelWithWind = 20, travelPerpendicularToWind = 10&lt;br&gt;&lt;/div&gt;" style="rounded=0;whiteSpace=wrap;html=1;" vertex="1" parent="1">
          <mxGeometry x="287" y="205" width="198.5" height="120" as="geometry" />
        </mxCell>
        <mxCell id="C2YQ_uAtjsGstVJMHjRB-25" style="edgeStyle=orthogonalEdgeStyle;rounded=0;orthogonalLoop=1;jettySize=auto;html=1;entryX=0.5;entryY=0;entryDx=0;entryDy=0;fontSize=14;" edge="1" parent="1" source="C2YQ_uAtjsGstVJMHjRB-3" target="C2YQ_uAtjsGstVJMHjRB-4">
          <mxGeometry relative="1" as="geometry" />
        </mxCell>
        <mxCell id="C2YQ_uAtjsGstVJMHjRB-3" value="Get the directional data from the minutes and directions sub-processes" style="rounded=0;whiteSpace=wrap;html=1;" vertex="1" parent="1">
          <mxGeometry x="312" y="355" width="150" height="60" as="geometry" />
        </mxCell>
        <mxCell id="C2YQ_uAtjsGstVJMHjRB-26" value="" style="edgeStyle=orthogonalEdgeStyle;rounded=0;orthogonalLoop=1;jettySize=auto;html=1;fontSize=14;" edge="1" parent="1" source="C2YQ_uAtjsGstVJMHjRB-4" target="C2YQ_uAtjsGstVJMHjRB-6">
          <mxGeometry relative="1" as="geometry" />
        </mxCell>
        <mxCell id="C2YQ_uAtjsGstVJMHjRB-4" value="&lt;div&gt;totalDistance = totalTravelUnits * 2;&lt;/div&gt;&lt;div&gt;averageTime = totalTravelUnits*15;&lt;/div&gt;&lt;div&gt;unitTime = &lt;br&gt;&lt;/div&gt;passengers * 5" style="rounded=0;whiteSpace=wrap;html=1;" vertex="1" parent="1">
          <mxGeometry x="312" y="445" width="150" height="100" as="geometry" />
        </mxCell>
        <mxCell id="C2YQ_uAtjsGstVJMHjRB-6" value="What&#39;s the wind direction?" style="rhombus;whiteSpace=wrap;html=1;" vertex="1" parent="1">
          <mxGeometry x="292" y="585" width="190" height="90" as="geometry" />
        </mxCell>
        <mxCell id="C2YQ_uAtjsGstVJMHjRB-7" value="unitTime += (unitTime * travelAgainstWind)" style="rounded=0;whiteSpace=wrap;html=1;" vertex="1" parent="1">
          <mxGeometry x="113" y="755" width="120" height="60" as="geometry" />
        </mxCell>
        <mxCell id="C2YQ_uAtjsGstVJMHjRB-8" value="" style="endArrow=classic;html=1;rounded=0;exitX=0.5;exitY=1;exitDx=0;exitDy=0;entryX=0.5;entryY=0;entryDx=0;entryDy=0;" edge="1" parent="1" source="C2YQ_uAtjsGstVJMHjRB-6" target="C2YQ_uAtjsGstVJMHjRB-7">
          <mxGeometry relative="1" as="geometry">
            <mxPoint x="293" y="755" as="sourcePoint" />
            <mxPoint x="393" y="755" as="targetPoint" />
            <Array as="points">
              <mxPoint x="387" y="735" />
              <mxPoint x="173" y="735" />
            </Array>
          </mxGeometry>
        </mxCell>
        <mxCell id="C2YQ_uAtjsGstVJMHjRB-9" value="Against the wind" style="edgeLabel;resizable=0;html=1;align=center;verticalAlign=middle;" connectable="0" vertex="1" parent="C2YQ_uAtjsGstVJMHjRB-8">
          <mxGeometry relative="1" as="geometry">
            <mxPoint x="-27" as="offset" />
          </mxGeometry>
        </mxCell>
        <mxCell id="C2YQ_uAtjsGstVJMHjRB-27" value="" style="edgeStyle=orthogonalEdgeStyle;rounded=0;orthogonalLoop=1;jettySize=auto;html=1;fontSize=14;" edge="1" parent="1" source="C2YQ_uAtjsGstVJMHjRB-10" target="C2YQ_uAtjsGstVJMHjRB-19">
          <mxGeometry relative="1" as="geometry" />
        </mxCell>
        <mxCell id="C2YQ_uAtjsGstVJMHjRB-10" value="unitTime -= (unitTime * travelWithWind)" style="rounded=0;whiteSpace=wrap;html=1;" vertex="1" parent="1">
          <mxGeometry x="322" y="795" width="130" height="60" as="geometry" />
        </mxCell>
        <mxCell id="C2YQ_uAtjsGstVJMHjRB-11" value="unitTime += (unitTime * travelPerpendicularToWind)" style="rounded=0;whiteSpace=wrap;html=1;" vertex="1" parent="1">
          <mxGeometry x="533" y="755" width="180" height="60" as="geometry" />
        </mxCell>
        <mxCell id="C2YQ_uAtjsGstVJMHjRB-12" value="" style="endArrow=classic;html=1;rounded=0;exitX=0.5;exitY=1;exitDx=0;exitDy=0;entryX=0.5;entryY=0;entryDx=0;entryDy=0;" edge="1" parent="1" target="C2YQ_uAtjsGstVJMHjRB-10">
          <mxGeometry relative="1" as="geometry">
            <mxPoint x="386.64" y="695" as="sourcePoint" />
            <mxPoint x="386.64" y="815" as="targetPoint" />
          </mxGeometry>
        </mxCell>
        <mxCell id="C2YQ_uAtjsGstVJMHjRB-13" value="Travel with wind" style="edgeLabel;resizable=0;html=1;align=center;verticalAlign=middle;" connectable="0" vertex="1" parent="C2YQ_uAtjsGstVJMHjRB-12">
          <mxGeometry relative="1" as="geometry">
            <mxPoint y="20" as="offset" />
          </mxGeometry>
        </mxCell>
        <mxCell id="C2YQ_uAtjsGstVJMHjRB-17" value="" style="endArrow=classic;html=1;rounded=0;entryX=0.5;entryY=0;entryDx=0;entryDy=0;exitX=0.5;exitY=1;exitDx=0;exitDy=0;" edge="1" parent="1" source="C2YQ_uAtjsGstVJMHjRB-6" target="C2YQ_uAtjsGstVJMHjRB-11">
          <mxGeometry relative="1" as="geometry">
            <mxPoint x="493" y="735" as="sourcePoint" />
            <mxPoint x="593" y="735" as="targetPoint" />
            <Array as="points">
              <mxPoint x="387" y="735" />
              <mxPoint x="623" y="735" />
            </Array>
          </mxGeometry>
        </mxCell>
        <mxCell id="C2YQ_uAtjsGstVJMHjRB-18" value="Travel perpendicular to wind" style="edgeLabel;resizable=0;html=1;align=center;verticalAlign=middle;" connectable="0" vertex="1" parent="C2YQ_uAtjsGstVJMHjRB-17">
          <mxGeometry relative="1" as="geometry">
            <mxPoint x="48" as="offset" />
          </mxGeometry>
        </mxCell>
        <mxCell id="C2YQ_uAtjsGstVJMHjRB-28" value="" style="edgeStyle=orthogonalEdgeStyle;rounded=0;orthogonalLoop=1;jettySize=auto;html=1;fontSize=14;" edge="1" parent="1" source="C2YQ_uAtjsGstVJMHjRB-19" target="C2YQ_uAtjsGstVJMHjRB-21">
          <mxGeometry relative="1" as="geometry" />
        </mxCell>
        <mxCell id="C2YQ_uAtjsGstVJMHjRB-19" value="averageMins = unitTime / totalTravelUnits" style="rounded=0;whiteSpace=wrap;html=1;" vertex="1" parent="1">
          <mxGeometry x="322" y="895" width="130" height="60" as="geometry" />
        </mxCell>
        <mxCell id="C2YQ_uAtjsGstVJMHjRB-21" value="End" style="ellipse;whiteSpace=wrap;html=1;" vertex="1" parent="1">
          <mxGeometry x="346.25" y="990" width="80" height="50" as="geometry" />
        </mxCell>
        <mxCell id="C2YQ_uAtjsGstVJMHjRB-22" value="&lt;h1&gt;&lt;font style=&quot;font-size: 18px;&quot;&gt;&lt;font style=&quot;font-size: 14px;&quot;&gt;Workshop 11 Logic 3(Individual Submission)&lt;/font&gt;&lt;br&gt;&lt;/font&gt;&lt;/h1&gt;&lt;p&gt;Full Name&amp;nbsp; :&amp;nbsp; Jeel Satishkumar Patel&lt;br&gt;Student ID#:&amp;nbsp; 167984210&lt;br&gt;Email&amp;nbsp;&amp;nbsp;&amp;nbsp;&amp;nbsp;&amp;nbsp;&amp;nbsp;&amp;nbsp;&amp;nbsp;&amp;nbsp;&amp;nbsp; :&amp;nbsp; jpatel363@myseneca.ca&lt;br&gt;Section&amp;nbsp;&amp;nbsp;&amp;nbsp;&amp;nbsp;&amp;nbsp;&amp;nbsp;&amp;nbsp; :&amp;nbsp; NEE&lt;br&gt;&lt;/p&gt;" style="text;html=1;strokeColor=none;fillColor=none;spacing=5;spacingTop=-20;whiteSpace=wrap;overflow=hidden;rounded=0;" vertex="1" parent="1">
          <mxGeometry x="40" y="40" width="400" height="120" as="geometry" />
        </mxCell>
      </root>
    </mxGraphModel>
  </diagram>
</mxfile>
